<svg xmlns="http://www.w3.org/2000/svg" viewBox="0 0 1305 1305"><defs><style>.cls-1{fill:#fff;stroke:#231f20;stroke-miterlimit:10;stroke-width:5px;}</style></defs><title>Asset 7</title><g id="Layer_2" data-name="Layer 2"><g id="Layer_1-2" data-name="Layer 1"><path class="cls-1" d="M556.84,127.92c18.12,2.11,36.46,3,54.33,6.5C809,172.74,992.78,246.7,1161.1,358.1c32.14,21.27,61.82,47.87,88.13,76.26,69.7,75.2,72.69,162.76-1,233.86C1198,716.6,1138.18,758,1076.26,790c-77.13,39.78-161,66.13-241.51,99.55-10.93,4.54-18.87,16.42-28.1,25-4,3.7-7.29,8.27-11.64,11.41-31.08,22.44-61.84,45.38-93.71,66.62-23.27,15.5-47.37,30.14-72.44,42.37-20.16,9.84-42.7,16.55-45.7-20.54C556.79,1020.07,534.1,1027,511,1029c-10.19.86-21.22-8.48-31.87-13.19,6.95-10.47,11.66-26.14,21.3-30.35,22.14-9.67,46.69-13.75,73.06-20.86-7.86-29.16-14.82-55-22.94-85.08C528,884.66,507.79,892.06,487.31,893c-13.71.64-36.7-4.34-40.08-12.95-9.38-24,13.47-27.79,30.34-32.55,19.09-5.38,38.37-10.1,58.25-15.28V793.92C573.54,778,610.67,779,649.77,787.73c37.2,8.34,75.64,11.07,113.52,16.39,5.54.77,15.06,1,15.85,3.59,10.37,34,33,18.14,51,12,119.82-40.65,238.05-85,338.62-165.54a235.34,235.34,0,0,0,33.12-32.09c42.21-50.25,43.62-89.14,1.81-139.1-52.75-63-122.4-104.31-195.17-137.8C876.81,284.62,742.85,229,610.05,170.87c-19.87-8.7-38.62-20-57.88-30.13Q554.5,134.33,556.84,127.92Z"/><path class="cls-1" d="M702.73,616.85l-32.38,18c-30.47-26-42.08-60.61-50-98.2-8.64-41.06-21.25-81.29-29.62-122.4-2-10,5.73-22,10.55-38.43C535.62,292,460.16,210.91,370.63,144.68,335,118.34,295.45,95.49,254.57,78.77c-57.49-23.51-104-7.56-123.83,50.82C105.45,203.88,83.48,282.06,78,359.84c-10,140.55-6.39,282-9.06,423.13-.53,28-3.7,56-5.65,83.95l-9.74,2.23c-5.34-12.85-12.93-25.24-15.67-38.63-44.38-217.69-50.69-436,2.44-652.69C83.36,2.24,195.55-43.09,350,49.19,463.92,117.25,552.72,214,638.13,314.1c10.6,12.42,17.3,33.63,41.41,20.78,2.36-1.26,9,5.63,13.67,8.75,26.91,18.05,53.95,35.93,80.7,54.23,26.94,18.43,54.93,35.68,79.83,56.62,12.88,10.83,30.54,26.73,6.18,46.61-2.85,2.33,1.7,17.14,5.93,24.3,9,15.24,22.5,28.19,29.32,44.17,4,9.26-1.47,22.58-2.68,34.08-11.41-2.47-26.57-1.17-33.47-8.15-16.36-16.57-28.81-37.06-46.33-60.67l-71.77,50.79c13.84,20.27,28.69,37.23,37.63,56.91,5.47,12,1.85,28.27,2.31,42.61-13.38-5.63-29.45-8.31-39.5-17.6C727,654.21,717,636.08,702.73,616.85Z"/><path class="cls-1" d="M279.44,406l37.37,12.53c10.33-17.65,21.39-35.59,31.46-54.06,9-16.56,20-34.8,39.57-20.05,7.1,5.34,5.35,28.95,1,42-6.61,19.69-19,37.39-30.24,58.26l75.88,43.79c12.76-21.82,22.44-43.39,36.85-61,7.68-9.4,23.54-12,35.71-17.71,1.54,13.54,7.62,28.67,3.62,40.28-7.14,20.75-20.36,39.37-31.69,60.08l29.56,23.59C492.86,580.4,459,607.31,420.34,632c-27.12,17.32-49.31,42.3-75.16,61.92-8.78,6.66-22,7.39-33.19,10.83l-9.56-8.92c-28.5,70.89-62.27,140.18-84,213.12-20.75,69.78-35.64,142.85-40.87,215.37-5.85,81.24,36.5,123.49,116.67,113.18,82.06-10.54,165.07-29.55,242.23-59.19,130.73-50.23,257.12-111.89,385.54-168.26,15.39-6.75,32.1-10.46,48.2-15.58l12.44,16c-14.38,9.38-29.16,18.2-43.09,28.22C772.9,1158.53,591.76,1247.85,391.48,1293c-49.62,11.19-103.36,11.16-154.42,6.81-73-6.21-121.41-71.1-126.36-157-5.6-96.92,19.26-188.43,51.39-278,20-55.67,45.66-109.24,68.11-164,7.08-17.27,23.5-34.76,2.9-54.15-1.44-1.35.76-6.58,1.22-10,5.78-42.84,9.83-86,17.86-128.4C258.6,474.3,269.85,441.25,279.44,406Z"/></g></g></svg>